<mxfile host="app.diagrams.net" agent="Mozilla/5.0 (Windows NT 10.0; Win64; x64) AppleWebKit/537.36 (KHTML, like Gecko) Chrome/128.0.0.0 Safari/537.36" version="24.7.7">
  <diagram name="Page-1" id="MJXIZ1R0Z1FUfhxcSoeF">
    <mxGraphModel dx="2074" dy="744" grid="1" gridSize="10" guides="1" tooltips="1" connect="1" arrows="1" fold="1" page="1" pageScale="1" pageWidth="827" pageHeight="1169" math="0" shadow="0">
      <root>
        <mxCell id="0" />
        <mxCell id="1" parent="0" />
        <mxCell id="mvuYGX5b3dszOzRJgR8V-1" value="Cloud Repository" style="sketch=0;pointerEvents=1;shadow=0;dashed=0;html=1;strokeColor=none;fillColor=#005F4B;labelPosition=center;verticalLabelPosition=bottom;verticalAlign=top;align=center;outlineConnect=0;shape=mxgraph.veeam2.cloud_repository;" vertex="1" parent="1">
          <mxGeometry x="710" y="245" width="50" height="50" as="geometry" />
        </mxCell>
        <mxCell id="mvuYGX5b3dszOzRJgR8V-2" value="Disk Repository" style="sketch=0;pointerEvents=1;shadow=0;dashed=0;html=1;strokeColor=none;fillColor=#005F4B;labelPosition=center;verticalLabelPosition=bottom;verticalAlign=top;align=center;outlineConnect=0;shape=mxgraph.veeam2.veeam_repository;" vertex="1" parent="1">
          <mxGeometry x="360" y="390" width="50" height="50" as="geometry" />
        </mxCell>
        <mxCell id="mvuYGX5b3dszOzRJgR8V-3" value="Tape Library" style="sketch=0;pointerEvents=1;shadow=0;dashed=0;html=1;strokeColor=none;fillColor=#005F4B;labelPosition=center;verticalLabelPosition=bottom;verticalAlign=top;align=center;outlineConnect=0;shape=mxgraph.veeam2.tape_server;" vertex="1" parent="1">
          <mxGeometry x="532" y="530" width="60" height="70" as="geometry" />
        </mxCell>
        <mxCell id="mvuYGX5b3dszOzRJgR8V-4" value="" style="pointerEvents=1;shadow=0;dashed=0;html=1;strokeColor=none;fillColor=#13B24B;labelPosition=center;verticalLabelPosition=bottom;verticalAlign=top;align=center;outlineConnect=0;shape=mxgraph.veeam2.veeam_logo;" vertex="1" parent="1">
          <mxGeometry x="322" y="40" width="184" height="30" as="geometry" />
        </mxCell>
        <mxCell id="mvuYGX5b3dszOzRJgR8V-5" value="Veeam Backup &amp;amp; Replication" style="sketch=0;pointerEvents=1;shadow=0;dashed=0;html=1;strokeColor=none;fillColor=#005F4B;labelPosition=center;verticalLabelPosition=bottom;verticalAlign=top;align=center;outlineConnect=0;shape=mxgraph.veeam2.vbr_server;" vertex="1" parent="1">
          <mxGeometry x="170.5" y="380" width="60" height="70" as="geometry" />
        </mxCell>
        <mxCell id="mvuYGX5b3dszOzRJgR8V-7" value="" style="sketch=0;pointerEvents=1;shadow=0;dashed=0;html=1;strokeColor=none;fillColor=#005F4B;labelPosition=center;verticalLabelPosition=bottom;verticalAlign=top;align=center;outlineConnect=0;shape=mxgraph.veeam2.esxi_host;" vertex="1" parent="1">
          <mxGeometry x="120" y="120" width="161" height="140" as="geometry" />
        </mxCell>
        <mxCell id="mvuYGX5b3dszOzRJgR8V-8" value="Azure / AWS Cloud" style="sketch=0;pointerEvents=1;shadow=0;dashed=0;html=1;strokeColor=none;fillColor=#005F4B;labelPosition=center;verticalLabelPosition=bottom;verticalAlign=top;align=center;outlineConnect=0;shape=mxgraph.veeam2.cloud;" vertex="1" parent="1">
          <mxGeometry x="522" y="240" width="80" height="60" as="geometry" />
        </mxCell>
        <mxCell id="mvuYGX5b3dszOzRJgR8V-9" value="Linux - Immutable Storage" style="sketch=0;pointerEvents=1;shadow=0;dashed=0;html=1;strokeColor=none;fillColor=#005F4B;labelPosition=center;verticalLabelPosition=bottom;verticalAlign=top;align=center;outlineConnect=0;shape=mxgraph.veeam2.linux_repository;" vertex="1" parent="1">
          <mxGeometry x="532" y="385" width="58" height="60" as="geometry" />
        </mxCell>
        <mxCell id="mvuYGX5b3dszOzRJgR8V-10" value="" style="endArrow=classic;html=1;rounded=0;" edge="1" parent="1" source="mvuYGX5b3dszOzRJgR8V-7" target="mvuYGX5b3dszOzRJgR8V-5">
          <mxGeometry width="50" height="50" relative="1" as="geometry">
            <mxPoint x="320" y="320" as="sourcePoint" />
            <mxPoint x="370" y="270" as="targetPoint" />
          </mxGeometry>
        </mxCell>
        <mxCell id="mvuYGX5b3dszOzRJgR8V-11" value="" style="endArrow=classic;html=1;rounded=0;" edge="1" parent="1" source="mvuYGX5b3dszOzRJgR8V-5" target="mvuYGX5b3dszOzRJgR8V-2">
          <mxGeometry width="50" height="50" relative="1" as="geometry">
            <mxPoint x="211" y="270" as="sourcePoint" />
            <mxPoint x="211" y="390" as="targetPoint" />
          </mxGeometry>
        </mxCell>
        <mxCell id="mvuYGX5b3dszOzRJgR8V-12" value="" style="endArrow=classic;html=1;rounded=0;" edge="1" parent="1" source="mvuYGX5b3dszOzRJgR8V-2" target="mvuYGX5b3dszOzRJgR8V-9">
          <mxGeometry width="50" height="50" relative="1" as="geometry">
            <mxPoint x="221" y="280" as="sourcePoint" />
            <mxPoint x="221" y="400" as="targetPoint" />
          </mxGeometry>
        </mxCell>
        <mxCell id="mvuYGX5b3dszOzRJgR8V-13" value="" style="endArrow=classic;html=1;rounded=0;" edge="1" parent="1" source="mvuYGX5b3dszOzRJgR8V-2" target="mvuYGX5b3dszOzRJgR8V-8">
          <mxGeometry width="50" height="50" relative="1" as="geometry">
            <mxPoint x="360" y="290" as="sourcePoint" />
            <mxPoint x="231" y="410" as="targetPoint" />
          </mxGeometry>
        </mxCell>
        <mxCell id="mvuYGX5b3dszOzRJgR8V-16" value="" style="endArrow=classic;html=1;rounded=0;" edge="1" parent="1" source="mvuYGX5b3dszOzRJgR8V-2" target="mvuYGX5b3dszOzRJgR8V-3">
          <mxGeometry width="50" height="50" relative="1" as="geometry">
            <mxPoint x="420" y="403" as="sourcePoint" />
            <mxPoint x="526" y="310" as="targetPoint" />
          </mxGeometry>
        </mxCell>
        <mxCell id="mvuYGX5b3dszOzRJgR8V-17" value="" style="endArrow=classic;html=1;rounded=0;" edge="1" parent="1" source="mvuYGX5b3dszOzRJgR8V-8" target="mvuYGX5b3dszOzRJgR8V-1">
          <mxGeometry width="50" height="50" relative="1" as="geometry">
            <mxPoint x="430" y="413" as="sourcePoint" />
            <mxPoint x="536" y="320" as="targetPoint" />
          </mxGeometry>
        </mxCell>
      </root>
    </mxGraphModel>
  </diagram>
</mxfile>
